<svg viewBox="0 0 330 200" xmlns="http://www.w3.org/2000/svg"><g><g><g><g><g><line x1="48.875" y1="177.828125" x2="43.875" y2="177.828125" style="visibility: inherit;" fill="rgb(0, 0, 0)" stroke="rgb(204, 204, 204)" stroke-width="1px"></line><line x1="48.875" y1="163.00911458333331" x2="43.875" y2="163.00911458333331" style="visibility: inherit;" fill="rgb(0, 0, 0)" stroke="rgb(204, 204, 204)" stroke-width="1px"></line><line x1="48.875" y1="148.19010416666663" x2="43.875" y2="148.19010416666663" style="visibility: inherit;" fill="rgb(0, 0, 0)" stroke="rgb(204, 204, 204)" stroke-width="1px"></line><line x1="48.875" y1="133.37109374999994" x2="43.875" y2="133.37109374999994" style="visibility: inherit;" fill="rgb(0, 0, 0)" stroke="rgb(204, 204, 204)" stroke-width="1px"></line><line x1="48.875" y1="118.55208333333329" x2="43.875" y2="118.55208333333329" style="visibility: inherit;" fill="rgb(0, 0, 0)" stroke="rgb(204, 204, 204)" stroke-width="1px"></line><line x1="48.875" y1="103.7330729166666" x2="43.875" y2="103.7330729166666" style="visibility: inherit;" fill="rgb(0, 0, 0)" stroke="rgb(204, 204, 204)" stroke-width="1px"></line><line x1="48.875" y1="88.91406249999991" x2="43.875" y2="88.91406249999991" style="visibility: inherit;" fill="rgb(0, 0, 0)" stroke="rgb(204, 204, 204)" stroke-width="1px"></line><line x1="48.875" y1="74.09505208333323" x2="43.875" y2="74.09505208333323" style="visibility: inherit;" fill="rgb(0, 0, 0)" stroke="rgb(204, 204, 204)" stroke-width="1px"></line><line x1="48.875" y1="59.276041666666714" x2="43.875" y2="59.276041666666714" style="visibility: inherit;" fill="rgb(0, 0, 0)" stroke="rgb(204, 204, 204)" stroke-width="1px"></line><line x1="48.875" y1="44.45703125000003" x2="43.875" y2="44.45703125000003" style="visibility: inherit;" fill="rgb(0, 0, 0)" stroke="rgb(204, 204, 204)" stroke-width="1px"></line><line x1="48.875" y1="29.63802083333337" x2="43.875" y2="29.63802083333337" style="visibility: inherit;" fill="rgb(0, 0, 0)" stroke="rgb(204, 204, 204)" stroke-width="1px"></line><line x1="48.875" y1="14.819010416666686" x2="43.875" y2="14.819010416666686" style="visibility: inherit;" fill="rgb(0, 0, 0)" stroke="rgb(204, 204, 204)" stroke-width="1px"></line><line x1="48.875" y1="0" x2="43.875" y2="0" style="visibility: inherit;" fill="rgb(0, 0, 0)" stroke="rgb(204, 204, 204)" stroke-width="1px"></line></g><g transform="translate(38.875, 0)"><text x="0" y="177.828125" dx="0em" dy="0.3em" style="text-anchor: end; visibility: hidden; font-family: &quot;Helvetica Neue&quot;, sans-serif; font-size: 12px; font-weight: 200;" fill="rgb(50, 49, 63)" stroke="none" stroke-width="1px">0.86</text><text x="0" y="163.00911458333331" dx="0em" dy="0.3em" style="text-anchor: end; visibility: inherit; font-family: &quot;Helvetica Neue&quot;, sans-serif; font-size: 12px; font-weight: 200;" fill="rgb(50, 49, 63)" stroke="none" stroke-width="1px">0.87</text><text x="0" y="148.19010416666663" dx="0em" dy="0.3em" style="text-anchor: end; visibility: hidden; font-family: &quot;Helvetica Neue&quot;, sans-serif; font-size: 12px; font-weight: 200;" fill="rgb(50, 49, 63)" stroke="none" stroke-width="1px">0.88</text><text x="0" y="133.37109374999994" dx="0em" dy="0.3em" style="text-anchor: end; visibility: inherit; font-family: &quot;Helvetica Neue&quot;, sans-serif; font-size: 12px; font-weight: 200;" fill="rgb(50, 49, 63)" stroke="none" stroke-width="1px">0.89</text><text x="0" y="118.55208333333329" dx="0em" dy="0.3em" style="text-anchor: end; visibility: hidden; font-family: &quot;Helvetica Neue&quot;, sans-serif; font-size: 12px; font-weight: 200;" fill="rgb(50, 49, 63)" stroke="none" stroke-width="1px">0.9</text><text x="0" y="103.7330729166666" dx="0em" dy="0.3em" style="text-anchor: end; visibility: inherit; font-family: &quot;Helvetica Neue&quot;, sans-serif; font-size: 12px; font-weight: 200;" fill="rgb(50, 49, 63)" stroke="none" stroke-width="1px">0.91</text><text x="0" y="88.91406249999991" dx="0em" dy="0.3em" style="text-anchor: end; visibility: hidden; font-family: &quot;Helvetica Neue&quot;, sans-serif; font-size: 12px; font-weight: 200;" fill="rgb(50, 49, 63)" stroke="none" stroke-width="1px">0.92</text><text x="0" y="74.09505208333323" dx="0em" dy="0.3em" style="text-anchor: end; visibility: inherit; font-family: &quot;Helvetica Neue&quot;, sans-serif; font-size: 12px; font-weight: 200;" fill="rgb(50, 49, 63)" stroke="none" stroke-width="1px">0.93</text><text x="0" y="59.276041666666714" dx="0em" dy="0.3em" style="text-anchor: end; visibility: hidden; font-family: &quot;Helvetica Neue&quot;, sans-serif; font-size: 12px; font-weight: 200;" fill="rgb(50, 49, 63)" stroke="none" stroke-width="1px">0.94</text><text x="0" y="44.45703125000003" dx="0em" dy="0.3em" style="text-anchor: end; visibility: inherit; font-family: &quot;Helvetica Neue&quot;, sans-serif; font-size: 12px; font-weight: 200;" fill="rgb(50, 49, 63)" stroke="none" stroke-width="1px">0.95</text><text x="0" y="29.63802083333337" dx="0em" dy="0.3em" style="text-anchor: end; visibility: hidden; font-family: &quot;Helvetica Neue&quot;, sans-serif; font-size: 12px; font-weight: 200;" fill="rgb(50, 49, 63)" stroke="none" stroke-width="1px">0.96</text><text x="0" y="14.819010416666686" dx="0em" dy="0.3em" style="text-anchor: end; visibility: inherit; font-family: &quot;Helvetica Neue&quot;, sans-serif; font-size: 12px; font-weight: 200;" fill="rgb(50, 49, 63)" stroke="none" stroke-width="1px">0.97</text><text x="0" y="0" dx="0em" dy="0.3em" style="text-anchor: end; visibility: hidden; font-family: &quot;Helvetica Neue&quot;, sans-serif; font-size: 12px; font-weight: 200;" fill="rgb(50, 49, 63)" stroke="none" stroke-width="1px">0.98</text></g><line x1="48.875" y1="0" x2="48.875" y2="177.828125" fill="rgb(0, 0, 0)" stroke="rgb(204, 204, 204)" stroke-width="1px"></line></g></g><g transform="translate(48, 0)" clip-path="url(#clip_0)"><clipPath id="clip_0"><rect width="281" height="177"></rect></clipPath><g><g><g><line x1="0" y1="0" x2="0" y2="177.828125" fill="rgb(0, 0, 0)" stroke="rgb(60, 60, 60)" stroke-width="1px" opacity="0.25"></line><line x1="40.160714285714285" y1="0" x2="40.160714285714285" y2="177.828125" fill="rgb(0, 0, 0)" stroke="rgb(60, 60, 60)" stroke-width="1px" opacity="0.25"></line><line x1="80.32142857142857" y1="0" x2="80.32142857142857" y2="177.828125" fill="rgb(0, 0, 0)" stroke="rgb(60, 60, 60)" stroke-width="1px" opacity="0.25"></line><line x1="120.48214285714285" y1="0" x2="120.48214285714285" y2="177.828125" fill="rgb(0, 0, 0)" stroke="rgb(60, 60, 60)" stroke-width="1px" opacity="0.25"></line><line x1="160.64285714285714" y1="0" x2="160.64285714285714" y2="177.828125" fill="rgb(0, 0, 0)" stroke="rgb(60, 60, 60)" stroke-width="1px" opacity="0.25"></line><line x1="200.80357142857144" y1="0" x2="200.80357142857144" y2="177.828125" fill="rgb(0, 0, 0)" stroke="rgb(60, 60, 60)" stroke-width="1px" opacity="0.25"></line><line x1="240.9642857142857" y1="0" x2="240.9642857142857" y2="177.828125" fill="rgb(0, 0, 0)" stroke="rgb(60, 60, 60)" stroke-width="1px" opacity="0.25"></line><line x1="281.125" y1="0" x2="281.125" y2="177.828125" fill="rgb(0, 0, 0)" stroke="rgb(60, 60, 60)" stroke-width="1px" opacity="0.25"></line></g><g><line x1="0" y1="177.828125" x2="281.125" y2="177.828125" fill="rgb(0, 0, 0)" stroke="rgb(60, 60, 60)" stroke-width="1px" opacity="0.25"></line><line x1="0" y1="163.00911458333331" x2="281.125" y2="163.00911458333331" fill="rgb(0, 0, 0)" stroke="rgb(60, 60, 60)" stroke-width="1px" opacity="0.25"></line><line x1="0" y1="148.19010416666663" x2="281.125" y2="148.19010416666663" fill="rgb(0, 0, 0)" stroke="rgb(60, 60, 60)" stroke-width="1px" opacity="0.25"></line><line x1="0" y1="133.37109374999994" x2="281.125" y2="133.37109374999994" fill="rgb(0, 0, 0)" stroke="rgb(60, 60, 60)" stroke-width="1px" opacity="0.25"></line><line x1="0" y1="118.55208333333329" x2="281.125" y2="118.55208333333329" fill="rgb(0, 0, 0)" stroke="rgb(60, 60, 60)" stroke-width="1px" opacity="0.25"></line><line x1="0" y1="103.7330729166666" x2="281.125" y2="103.7330729166666" fill="rgb(0, 0, 0)" stroke="rgb(60, 60, 60)" stroke-width="1px" opacity="0.25"></line><line x1="0" y1="88.91406249999991" x2="281.125" y2="88.91406249999991" fill="rgb(0, 0, 0)" stroke="rgb(60, 60, 60)" stroke-width="1px" opacity="0.25"></line><line x1="0" y1="74.09505208333323" x2="281.125" y2="74.09505208333323" fill="rgb(0, 0, 0)" stroke="rgb(60, 60, 60)" stroke-width="1px" opacity="0.25"></line><line x1="0" y1="59.276041666666714" x2="281.125" y2="59.276041666666714" fill="rgb(0, 0, 0)" stroke="rgb(60, 60, 60)" stroke-width="1px" opacity="0.25"></line><line x1="0" y1="44.45703125000003" x2="281.125" y2="44.45703125000003" fill="rgb(0, 0, 0)" stroke="rgb(60, 60, 60)" stroke-width="1px" opacity="0.25"></line><line x1="0" y1="29.63802083333337" x2="281.125" y2="29.63802083333337" fill="rgb(0, 0, 0)" stroke="rgb(60, 60, 60)" stroke-width="1px" opacity="0.25"></line><line x1="0" y1="14.819010416666686" x2="281.125" y2="14.819010416666686" fill="rgb(0, 0, 0)" stroke="rgb(60, 60, 60)" stroke-width="1px" opacity="0.25"></line><line x1="0" y1="0" x2="281.125" y2="0" fill="rgb(0, 0, 0)" stroke="rgb(60, 60, 60)" stroke-width="1px" opacity="0.25"></line></g></g></g><g><g><line x1="0" y1="1452.2630208333335" x2="281.125" y2="1452.2630208333335" fill="rgb(0, 0, 0)" stroke="rgb(153, 153, 153)" stroke-width="1.5px"></line></g></g><g><g><line x1="40.160714285714285" y1="0" x2="40.160714285714285" y2="177.828125" fill="rgb(0, 0, 0)" stroke="rgb(153, 153, 153)" stroke-width="1.5px"></line></g></g><g><g><g><g><g><path stroke="rgb(51, 187, 238)" stroke-width="2px" d="M40.160714285714285,43.713060611858936L48.19285714285714,45.344537397264645L56.225,46.11035064922751L64.25714285714285,52.20634656031419L72.28928571428571,46.71108103952528L80.32142857142857,42.05793640974963L88.35357142857143,48.8620824121584L96.38571428571429,44.43094956059602L104.41785714285714,47.72709798164681L112.45,55.5661893052327L120.48214285714285,44.3104235553879L128.5142857142857,40.72242482797873L136.54642857142858,61.05305667021801L144.57857142857142,57.56000344882007L152.61071428571427,47.84007557926208L160.64285714285714,87.86189131533953L168.67499999999998,67.06640362458735L176.70714285714286,52.71172600680292L184.7392857142857,60.2850708312983L192.77142857142857,48.43510777680038L200.80357142857144,50.409665721317026L208.8357142857143,57.65048017199581L216.86785714285716,49.9871615430786L224.9,39.75080567740724L232.93214285714288,45.40790039022551L240.9642857142857,39.300420517568966L248.99642857142857,38.76837789565778L257.0285714285714,45.549329868770286L265.06071428571425,45.963371376105556" style="fill: none;" fill="none"></path></g><g><path stroke="rgb(204, 51, 17)" stroke-width="2px" d="M40.160714285714285,49.60172406149405L48.19285714285714,46.106688184120344L56.225,46.52037729530085L64.25714285714285,45.829144464747486L72.28928571428571,43.82727661735393L80.32142857142857,42.30831739177441L88.35357142857143,44.8264421480481L96.38571428571429,42.62862937472579L104.41785714285714,41.130440635393256L112.45,40.5562951262217L120.48214285714285,40.28137615057287L128.5142857142857,38.72721592471942L136.54642857142858,38.334448585860144L144.57857142857142,39.778031971503395L152.61071428571427,39.032194603265765L160.64285714285714,38.047906475826835L168.67499999999998,38.17344413990037L176.70714285714286,37.913177946523575L184.7392857142857,35.90036955200219L192.77142857142857,34.78222507254651L200.80357142857144,35.341661832816186L208.8357142857143,36.348371755584566L216.86785714285716,35.364200585635786L224.9,36.13820312815605L232.93214285714288,35.10391606204104L240.9642857142857,33.65570919735961L248.99642857142857,35.717024205125426L257.0285714285714,32.94989276652299L265.06071428571425,31.848838602967078" style="fill: none;" fill="none"></path></g><g><path stroke="rgb(0, 119, 187)" stroke-width="2px" d="M40.160714285714285,159.6130654532462L48.19285714285714,156.67637411644665L56.225,136.4660516371634L64.25714285714285,166.05733072341144L72.28928571428571,126.69278091227446L80.32142857142857,109.2908723842183L88.35357142857143,152.66537465814508L96.38571428571429,120.65895481197263L104.41785714285714,103.80670706245769L112.45,86.24115423320946L120.48214285714285,137.0748604234641L128.5142857142857,126.75100216952586L136.54642857142858,103.21564009005269L144.57857142857142,110.95383437960022L152.61071428571427,115.90626261537648L160.64285714285714,91.92969639849161L168.67499999999998,78.90570841370356L176.70714285714286,72.65908579055234L184.7392857142857,64.10818617477312L192.77142857142857,59.18679535862408L200.80357142857144,57.17383787240725L208.8357142857143,55.75724573235729L216.86785714285716,58.9795111967134L224.9,53.70824329838622L232.93214285714288,61.61344025854174L240.9642857142857,57.37687343999697L248.99642857142857,63.18810766469737L257.0285714285714,63.12475579408374L265.06071428571425,73.73700787713615L273.09285714285716,65.2775135196394" style="fill: none;" fill="none"></path></g><g><path stroke="rgb(255, 112, 67)" stroke-width="2px" d="M40.160714285714285,266.57443461070443L48.19285714285714,176.57690193507975L56.225,151.22353004426589L64.25714285714285,149.98370466014708L72.28928571428571,147.0713948023204L80.32142857142857,147.00114512379213L88.35357142857143,142.65778163687202L96.38571428571429,139.63040768222612L104.41785714285714,134.48005816423338L112.45,135.27150139581784L120.48214285714285,130.8268107545457L128.5142857142857,129.58260106928702L136.54642857142858,129.48734140803595L144.57857142857142,125.93807071822738L152.61071428571427,127.03285067309787L160.64285714285714,123.63960059656077L168.67499999999998,120.261906984899L176.70714285714286,119.80162720694028L184.7392857142857,118.83200008476841L192.77142857142857,118.9884649264338L200.80357142857144,117.51652974799791L208.8357142857143,116.74521426095879L216.86785714285716,115.74560384844085L224.9,115.63793897027767L232.93214285714288,114.67860864152533L240.9642857142857,115.37801405218403L248.99642857142857,114.43316133380011L257.0285714285714,114.87283893814177L265.06071428571425,114.71164527553444L273.09285714285716,113.00442329390148" style="fill: none;" fill="none"></path></g></g></g></g><g opacity="0.20000000298023224"><g><g><g><path stroke="rgb(51, 187, 238)" stroke-width="2px" d="M40.160714285714285,43.713060611858936L48.19285714285714,46.3234234685078L56.225,46.84553137111163L64.25714285714285,59.375237751752124L72.28928571428571,39.53646237558371L80.32142857142857,35.62096225470302L88.35357142857143,58.59212006193893L96.38571428571429,37.97031532414255L104.41785714285714,52.58827665882802L112.45,67.20632632169871L120.48214285714285,27.528863897547097L128.5142857142857,35.359952467493684L136.54642857142858,91.48262139316647L144.57857142857142,52.32726687161869L152.61071428571427,33.271609185263486L160.64285714285714,147.86638843423373L168.67499999999998,35.88197204191235L176.70714285714286,31.18335423121846L184.7392857142857,71.64393434518324L192.77142857142857,30.661246328614624L200.80357142857144,53.3713943486412L208.8357142857143,68.51146358593053L216.86785714285716,38.49233489856121L224.9,24.3963931382944L232.93214285714288,53.89350225124507L240.9642857142857,30.13922675419596L248.99642857142857,37.97031532414255L257.0285714285714,55.720747418080734L265.06071428571425,46.58443325571713" style="fill: none;" fill="none"></path></g><g><path stroke="rgb(204, 51, 17)" stroke-width="2px" d="M40.160714285714285,49.60172406149405L48.19285714285714,44.00966665769613L56.225,46.91751884203401L64.25714285714285,45.0162546560168L72.28928571428571,41.213637955797196L80.32142857142857,40.20704995747653L88.35357142857143,48.427400839515L96.38571428571429,39.4241972522189L104.41785714285714,38.920903253058555L112.45,39.70375595831621L120.48214285714285,39.87149118197459L128.5142857142857,36.404433257256926L136.54642857142858,37.74658003107953L144.57857142857142,41.94057891983536L152.61071428571427,37.914315254737915L160.64285714285714,36.57216848091531L168.67499999999998,38.361697512678774L176.70714285714286,37.52284473801649L184.7392857142857,32.8814635913198L192.77142857142857,33.105110556197644L200.80357142857144,36.18078629237908L208.8357142857143,37.858403513518454L216.86785714285716,33.88796326145527L224.9,37.299197773138644L232.93214285714288,33.5524928141385L240.9642857142857,31.483405076277734L248.99642857142857,38.80899144243446L257.0285714285714,28.799199856817694L265.06071428571425,30.19725837185976" style="fill: none;" fill="none"></path></g><g><path stroke="rgb(0, 119, 187)" stroke-width="2px" d="M40.160714285714285,159.6130654532462L48.19285714285714,154.91435931436715L56.225,117.06414205705124L64.25714285714285,200.856674928839L72.28928571428571,75.29842467885463L80.32142857142857,85.21776820284622L88.35357142857143,214.69160690189648L96.38571428571429,73.99328741462277L104.41785714285714,78.95291501252598L112.45,60.15835544156528L120.48214285714285,212.86436173506078L128.5142857142857,111.32139676933484L136.54642857142858,67.98944401151186L144.57857142857142,122.54596588574347L152.61071428571427,123.32908357555665L160.64285714285714,55.981757205290066L168.67499999999998,59.375237751752124L176.70714285714286,63.2907378726328L184.7392857142857,51.283139394596205L192.77142857142857,51.80515896901487L200.80357142857144,54.1545120384544L208.8357142857143,53.632404135850535L216.86785714285716,63.81284577523665L224.9,45.801403894089134L232.93214285714288,73.47117951201892L240.9642857142857,51.02204127920167L248.99642857142857,71.90494413239257L257.0285714285714,63.02972808542347L265.06071428571425,89.65537622633077L273.09285714285716,52.58827665882802" style="fill: none;" fill="none"></path></g><g><path stroke="rgb(255, 112, 67)" stroke-width="2px" d="M40.160714285714285,266.57443461070454L48.19285714285714,122.57838232970484L56.225,126.88429302908477L64.25714285714285,148.5256700084234L72.28928571428571,143.26908305194226L80.32142857142857,146.90396452850348L88.35357142857143,136.44670235676068L96.38571428571429,135.21646739356217L104.41785714285714,126.88429302908477L112.45,136.44670235676068L120.48214285714285,124.20008780962475L128.5142857142857,127.72305747556187L136.54642857142858,129.34476295548177L144.57857142857142,120.62111807428298L152.61071428571427,128.67373373266307L160.64285714285714,118.55211866460738L168.67499999999998,115.19679589414346L176.70714285714286,119.11132440498717L184.7392857142857,117.37770711444315L192.77142857142857,119.2231478874261L200.80357142857144,115.30870770476756L208.8357142857143,115.58826641086486L216.86785714285716,114.24620796522744L224.9,115.47644292842594L232.93214285714288,113.23961996690677L240.9642857142857,116.42711918552715L248.99642857142857,113.01588467384376L257.0285714285714,115.5323546696454L265.06071428571425,114.46985493010529L273.09285714285716,110.44359126500784" style="fill: none;" fill="none"></path></g></g></g></g></g></g><g transform="translate(48, 177)" clip-path="url(#clip_1)"><clipPath id="clip_1"><rect width="281" height="22"></rect></clipPath><g><g><line x1="0" y1="0" x2="0" y2="5" style="visibility: inherit;" fill="rgb(0, 0, 0)" stroke="rgb(204, 204, 204)" stroke-width="1px"></line><line x1="40.160714285714285" y1="0" x2="40.160714285714285" y2="5" style="visibility: inherit;" fill="rgb(0, 0, 0)" stroke="rgb(204, 204, 204)" stroke-width="1px"></line><line x1="80.32142857142857" y1="0" x2="80.32142857142857" y2="5" style="visibility: inherit;" fill="rgb(0, 0, 0)" stroke="rgb(204, 204, 204)" stroke-width="1px"></line><line x1="120.48214285714285" y1="0" x2="120.48214285714285" y2="5" style="visibility: inherit;" fill="rgb(0, 0, 0)" stroke="rgb(204, 204, 204)" stroke-width="1px"></line><line x1="160.64285714285714" y1="0" x2="160.64285714285714" y2="5" style="visibility: inherit;" fill="rgb(0, 0, 0)" stroke="rgb(204, 204, 204)" stroke-width="1px"></line><line x1="200.80357142857144" y1="0" x2="200.80357142857144" y2="5" style="visibility: inherit;" fill="rgb(0, 0, 0)" stroke="rgb(204, 204, 204)" stroke-width="1px"></line><line x1="240.9642857142857" y1="0" x2="240.9642857142857" y2="5" style="visibility: inherit;" fill="rgb(0, 0, 0)" stroke="rgb(204, 204, 204)" stroke-width="1px"></line><line x1="281.125" y1="0" x2="281.125" y2="5" style="visibility: inherit;" fill="rgb(0, 0, 0)" stroke="rgb(204, 204, 204)" stroke-width="1px"></line></g><g transform="translate(0, 8)"><text x="0" y="0" dx="0em" dy="0.95em" style="text-anchor: middle; visibility: hidden; font-family: &quot;Helvetica Neue&quot;, sans-serif; font-size: 12px; font-weight: 200;" fill="rgb(50, 49, 63)" stroke="none" stroke-width="1px">-5</text><text x="40.160714285714285" y="0" dx="0em" dy="0.95em" style="text-anchor: middle; visibility: inherit; font-family: &quot;Helvetica Neue&quot;, sans-serif; font-size: 12px; font-weight: 200;" fill="rgb(50, 49, 63)" stroke="none" stroke-width="1px">0</text><text x="80.32142857142857" y="0" dx="0em" dy="0.95em" style="text-anchor: middle; visibility: inherit; font-family: &quot;Helvetica Neue&quot;, sans-serif; font-size: 12px; font-weight: 200;" fill="rgb(50, 49, 63)" stroke="none" stroke-width="1px">5</text><text x="120.48214285714285" y="0" dx="0em" dy="0.95em" style="text-anchor: middle; visibility: inherit; font-family: &quot;Helvetica Neue&quot;, sans-serif; font-size: 12px; font-weight: 200;" fill="rgb(50, 49, 63)" stroke="none" stroke-width="1px">10</text><text x="160.64285714285714" y="0" dx="0em" dy="0.95em" style="text-anchor: middle; visibility: inherit; font-family: &quot;Helvetica Neue&quot;, sans-serif; font-size: 12px; font-weight: 200;" fill="rgb(50, 49, 63)" stroke="none" stroke-width="1px">15</text><text x="200.80357142857144" y="0" dx="0em" dy="0.95em" style="text-anchor: middle; visibility: inherit; font-family: &quot;Helvetica Neue&quot;, sans-serif; font-size: 12px; font-weight: 200;" fill="rgb(50, 49, 63)" stroke="none" stroke-width="1px">20</text><text x="240.9642857142857" y="0" dx="0em" dy="0.95em" style="text-anchor: middle; visibility: inherit; font-family: &quot;Helvetica Neue&quot;, sans-serif; font-size: 12px; font-weight: 200;" fill="rgb(50, 49, 63)" stroke="none" stroke-width="1px">25</text><text x="281.125" y="0" dx="0em" dy="0.95em" style="text-anchor: middle; visibility: hidden; font-family: &quot;Helvetica Neue&quot;, sans-serif; font-size: 12px; font-weight: 200;" fill="rgb(50, 49, 63)" stroke="none" stroke-width="1px">30</text></g><line x1="0" y1="0" x2="281.125" y2="0" fill="rgb(0, 0, 0)" stroke="rgb(204, 204, 204)" stroke-width="1px"></line></g></g></g></g></svg>