<svg viewBox="0 0 330 200" xmlns="http://www.w3.org/2000/svg"><g><g><g><g><g><line x1="58.59375" y1="177.828125" x2="53.59375" y2="177.828125" style="visibility: inherit;" fill="rgb(0, 0, 0)" stroke="rgb(204, 204, 204)" stroke-width="1px"></line><line x1="58.59375" y1="155.599609375" x2="53.59375" y2="155.599609375" style="visibility: inherit;" fill="rgb(0, 0, 0)" stroke="rgb(204, 204, 204)" stroke-width="1px"></line><line x1="58.59375" y1="133.37109375" x2="53.59375" y2="133.37109375" style="visibility: inherit;" fill="rgb(0, 0, 0)" stroke="rgb(204, 204, 204)" stroke-width="1px"></line><line x1="58.59375" y1="111.14257812499999" x2="53.59375" y2="111.14257812499999" style="visibility: inherit;" fill="rgb(0, 0, 0)" stroke="rgb(204, 204, 204)" stroke-width="1px"></line><line x1="58.59375" y1="88.91406249999999" x2="53.59375" y2="88.91406249999999" style="visibility: inherit;" fill="rgb(0, 0, 0)" stroke="rgb(204, 204, 204)" stroke-width="1px"></line><line x1="58.59375" y1="66.685546875" x2="53.59375" y2="66.685546875" style="visibility: inherit;" fill="rgb(0, 0, 0)" stroke="rgb(204, 204, 204)" stroke-width="1px"></line><line x1="58.59375" y1="44.45703125" x2="53.59375" y2="44.45703125" style="visibility: inherit;" fill="rgb(0, 0, 0)" stroke="rgb(204, 204, 204)" stroke-width="1px"></line><line x1="58.59375" y1="22.228515625" x2="53.59375" y2="22.228515625" style="visibility: inherit;" fill="rgb(0, 0, 0)" stroke="rgb(204, 204, 204)" stroke-width="1px"></line><line x1="58.59375" y1="0" x2="53.59375" y2="0" style="visibility: inherit;" fill="rgb(0, 0, 0)" stroke="rgb(204, 204, 204)" stroke-width="1px"></line></g><g transform="translate(48.59375, 0)"><text x="0" y="177.828125" dx="0em" dy="0.3em" style="text-anchor: end; visibility: hidden; font-family: &quot;Helvetica Neue&quot;, sans-serif; font-size: 12px; font-weight: 200;" fill="rgb(50, 49, 63)" stroke="none" stroke-width="1px">-0.05</text><text x="0" y="155.599609375" dx="0em" dy="0.3em" style="text-anchor: end; visibility: inherit; font-family: &quot;Helvetica Neue&quot;, sans-serif; font-size: 12px; font-weight: 200;" fill="rgb(50, 49, 63)" stroke="none" stroke-width="1px">0</text><text x="0" y="133.37109375" dx="0em" dy="0.3em" style="text-anchor: end; visibility: hidden; font-family: &quot;Helvetica Neue&quot;, sans-serif; font-size: 12px; font-weight: 200;" fill="rgb(50, 49, 63)" stroke="none" stroke-width="1px">0.05</text><text x="0" y="111.14257812499999" dx="0em" dy="0.3em" style="text-anchor: end; visibility: inherit; font-family: &quot;Helvetica Neue&quot;, sans-serif; font-size: 12px; font-weight: 200;" fill="rgb(50, 49, 63)" stroke="none" stroke-width="1px">0.1</text><text x="0" y="88.91406249999999" dx="0em" dy="0.3em" style="text-anchor: end; visibility: hidden; font-family: &quot;Helvetica Neue&quot;, sans-serif; font-size: 12px; font-weight: 200;" fill="rgb(50, 49, 63)" stroke="none" stroke-width="1px">0.15</text><text x="0" y="66.685546875" dx="0em" dy="0.3em" style="text-anchor: end; visibility: inherit; font-family: &quot;Helvetica Neue&quot;, sans-serif; font-size: 12px; font-weight: 200;" fill="rgb(50, 49, 63)" stroke="none" stroke-width="1px">0.2</text><text x="0" y="44.45703125" dx="0em" dy="0.3em" style="text-anchor: end; visibility: hidden; font-family: &quot;Helvetica Neue&quot;, sans-serif; font-size: 12px; font-weight: 200;" fill="rgb(50, 49, 63)" stroke="none" stroke-width="1px">0.25</text><text x="0" y="22.228515625" dx="0em" dy="0.3em" style="text-anchor: end; visibility: inherit; font-family: &quot;Helvetica Neue&quot;, sans-serif; font-size: 12px; font-weight: 200;" fill="rgb(50, 49, 63)" stroke="none" stroke-width="1px">0.3</text><text x="0" y="0" dx="0em" dy="0.3em" style="text-anchor: end; visibility: hidden; font-family: &quot;Helvetica Neue&quot;, sans-serif; font-size: 12px; font-weight: 200;" fill="rgb(50, 49, 63)" stroke="none" stroke-width="1px">0.35</text></g><line x1="58.59375" y1="0" x2="58.59375" y2="177.828125" fill="rgb(0, 0, 0)" stroke="rgb(204, 204, 204)" stroke-width="1px"></line></g></g><g transform="translate(58, 0)" clip-path="url(#clip_0)"><clipPath id="clip_0"><rect width="271" height="177"></rect></clipPath><g><g><g><line x1="0" y1="0" x2="0" y2="177.828125" fill="rgb(0, 0, 0)" stroke="rgb(60, 60, 60)" stroke-width="1px" opacity="0.25"></line><line x1="38.77232142857142" y1="0" x2="38.77232142857142" y2="177.828125" fill="rgb(0, 0, 0)" stroke="rgb(60, 60, 60)" stroke-width="1px" opacity="0.25"></line><line x1="77.54464285714285" y1="0" x2="77.54464285714285" y2="177.828125" fill="rgb(0, 0, 0)" stroke="rgb(60, 60, 60)" stroke-width="1px" opacity="0.25"></line><line x1="116.31696428571428" y1="0" x2="116.31696428571428" y2="177.828125" fill="rgb(0, 0, 0)" stroke="rgb(60, 60, 60)" stroke-width="1px" opacity="0.25"></line><line x1="155.0892857142857" y1="0" x2="155.0892857142857" y2="177.828125" fill="rgb(0, 0, 0)" stroke="rgb(60, 60, 60)" stroke-width="1px" opacity="0.25"></line><line x1="193.86160714285714" y1="0" x2="193.86160714285714" y2="177.828125" fill="rgb(0, 0, 0)" stroke="rgb(60, 60, 60)" stroke-width="1px" opacity="0.25"></line><line x1="232.63392857142856" y1="0" x2="232.63392857142856" y2="177.828125" fill="rgb(0, 0, 0)" stroke="rgb(60, 60, 60)" stroke-width="1px" opacity="0.25"></line><line x1="271.40625" y1="0" x2="271.40625" y2="177.828125" fill="rgb(0, 0, 0)" stroke="rgb(60, 60, 60)" stroke-width="1px" opacity="0.25"></line></g><g><line x1="0" y1="177.828125" x2="271.40625" y2="177.828125" fill="rgb(0, 0, 0)" stroke="rgb(60, 60, 60)" stroke-width="1px" opacity="0.25"></line><line x1="0" y1="155.599609375" x2="271.40625" y2="155.599609375" fill="rgb(0, 0, 0)" stroke="rgb(60, 60, 60)" stroke-width="1px" opacity="0.25"></line><line x1="0" y1="133.37109375" x2="271.40625" y2="133.37109375" fill="rgb(0, 0, 0)" stroke="rgb(60, 60, 60)" stroke-width="1px" opacity="0.25"></line><line x1="0" y1="111.14257812499999" x2="271.40625" y2="111.14257812499999" fill="rgb(0, 0, 0)" stroke="rgb(60, 60, 60)" stroke-width="1px" opacity="0.25"></line><line x1="0" y1="88.91406249999999" x2="271.40625" y2="88.91406249999999" fill="rgb(0, 0, 0)" stroke="rgb(60, 60, 60)" stroke-width="1px" opacity="0.25"></line><line x1="0" y1="66.685546875" x2="271.40625" y2="66.685546875" fill="rgb(0, 0, 0)" stroke="rgb(60, 60, 60)" stroke-width="1px" opacity="0.25"></line><line x1="0" y1="44.45703125" x2="271.40625" y2="44.45703125" fill="rgb(0, 0, 0)" stroke="rgb(60, 60, 60)" stroke-width="1px" opacity="0.25"></line><line x1="0" y1="22.228515625" x2="271.40625" y2="22.228515625" fill="rgb(0, 0, 0)" stroke="rgb(60, 60, 60)" stroke-width="1px" opacity="0.25"></line><line x1="0" y1="0" x2="271.40625" y2="0" fill="rgb(0, 0, 0)" stroke="rgb(60, 60, 60)" stroke-width="1px" opacity="0.25"></line></g></g></g><g><g><line x1="0" y1="155.599609375" x2="271.40625" y2="155.599609375" fill="rgb(0, 0, 0)" stroke="rgb(153, 153, 153)" stroke-width="1.5px"></line></g></g><g><g><line x1="38.77232142857142" y1="0" x2="38.77232142857142" y2="177.828125" fill="rgb(0, 0, 0)" stroke="rgb(153, 153, 153)" stroke-width="1.5px"></line></g></g><g><g><g><g><g><path stroke="rgb(51, 187, 238)" stroke-width="2px" d="M38.77232142857142,90.47224190749694L46.526785714285715,93.1382059765892L54.28125,90.8722597534236L62.035714285714285,87.12841958040114L69.79017857142857,90.59691270454906L77.54464285714285,95.47811172667791L85.29910714285714,91.44968592440027L93.05357142857143,95.72963383038517L100.80803571428572,94.30125003754135L108.5625,83.54474207204838L116.31696428571428,92.24532309591935L124.07142857142857,96.20456312766088L131.82589285714286,85.90543025985613L139.58035714285714,89.25219839387108L147.33482142857142,93.84899251641056L155.0892857142857,63.93017417814444L162.84375,79.74565710847621L170.59821428571428,89.55387341936003L178.35267857142858,83.22290521551169L186.10714285714286,91.49599180466514L193.86160714285714,91.0245705126953L201.61607142857144,89.25959323206717L209.37053571428572,94.3853518040456L217.125,100.50694133130543L224.8794642857143,97.35880220186348L232.63392857142856,100.2099709678741L240.38839285714283,100.57878065242248L248.14285714285714,96.48094515631121L255.89732142857142,94.45591670272185" style="fill: none;" fill="none"></path></g><g><path stroke="rgb(204, 51, 17)" stroke-width="2px" d="M38.77232142857142,91.81241454638075L46.526785714285715,93.85972248595499L54.28125,94.35672865059864L62.035714285714285,95.0892940541487L69.79017857142857,95.93824179851323L77.54464285714285,96.94557670389337L85.29910714285714,95.70770871496939L93.05357142857143,97.50435142468835L100.80803571428572,97.89141353494533L108.5625,98.42026051358667L116.31696428571428,98.64673280595532L124.07142857142857,99.51994698179874L131.82589285714286,100.13982296032204L139.58035714285714,99.30001024903352L147.33482142857142,99.70387099061277L155.0892857142857,100.50996767264898L162.84375,100.32048296828084L170.59821428571428,100.21107935940903L178.35267857142858,101.59449995304591L186.10714285714286,102.3696114223834L193.86160714285714,102.03961883811684L201.61607142857144,102.28132655576603L209.37053571428572,103.20825850248607L217.125,102.42590605683378L224.8794642857143,103.08884278340115L232.63392857142856,103.969224782142L240.38839285714283,102.76718689670697L248.14285714285714,104.3042190437695L255.89732142857142,104.8181692481546" style="fill: none;" fill="none"></path></g><g><path stroke="rgb(0, 119, 187)" stroke-width="2px" d="M38.77232142857142,20.835009544622153L46.526785714285715,7.521357397432439L54.28125,28.276505923744423L62.035714285714285,12.181768396995977L69.79017857142857,37.746300893173526L77.54464285714285,46.70556326133607L85.29910714285714,20.84893631272766L93.05357142857143,39.364392255397746L100.80803571428572,46.7020800561898L108.5625,60.10834665970319L116.31696428571428,39.88866390716004L124.07142857142857,46.40448748574329L131.82589285714286,56.67763845499087L139.58035714285714,53.024068654546284L147.33482142857142,52.15032944531839L155.0892857142857,64.4323061928957L162.84375,71.00402177567801L170.59821428571428,74.91067654148043L178.35267857142858,76.74536765768512L186.10714285714286,80.19090969306566L193.86160714285714,83.28240566127751L201.61607142857144,84.02672144719843L209.37053571428572,77.46845414938562L217.125,81.98594892718353L224.8794642857143,79.45503063368236L232.63392857142856,75.49232879922518L240.38839285714283,76.93687701443184L248.14285714285714,78.02276060857093L255.89732142857142,74.88730456493396L263.6517857142857,79.20746925231275" style="fill: none;" fill="none"></path></g><g><path stroke="rgb(255, 112, 67)" stroke-width="2px" d="M38.77232142857142,-24.624442379921675L46.526785714285715,15.161382165912073L54.28125,26.926948234923543L62.035714285714285,28.009075533715077L69.79017857142857,31.824144584869032L77.54464285714285,33.13650378015791L85.29910714285714,36.203484778284775L93.05357142857143,38.14430835163839L100.80803571428572,41.576899595048815L108.5625,41.50244501863773L116.31696428571428,45.230567158106936L124.07142857142857,45.33389507393244L131.82589285714286,46.325367020707716L139.58035714285714,48.089550298263674L147.33482142857142,48.393374144882074L155.0892857142857,49.721929453917056L162.84375,51.582955587025594L170.59821428571428,51.85550951675974L178.35267857142858,53.13206421325489L186.10714285714286,53.29901520414052L193.86160714285714,54.36506383595099L201.61607142857144,55.170367121764144L209.37053571428572,55.86403975324167L217.125,55.84778298230971L224.8794642857143,56.37595444583029L232.63392857142856,55.94359800479077L240.38839285714283,56.3587962333673L248.14285714285714,56.83738901471713L255.89732142857142,57.563398828790696L263.6517857142857,58.39156070293403" style="fill: none;" fill="none"></path></g></g></g></g><g opacity="0.20000000298023224"><g><g><g><path stroke="rgb(51, 187, 238)" stroke-width="2px" d="M38.77232142857142,90.47224190749694L46.526785714285715,94.73778441804461L54.28125,88.69695137918461L62.035714285714285,82.72566353692673L69.79017857142857,95.12537732743658L77.54464285714285,102.23056720593013L85.29910714285714,85.68897257233039L93.05357142857143,101.96983896481106L100.80803571428572,92.19466139236465L108.5625,67.57258134975564L116.31696428571428,105.21728100220207L124.07142857142857,102.1218771658605L131.82589285714286,70.4903594139032L139.58035714285714,94.26579392771237L147.33482142857142,100.73878034128575L155.0892857142857,19.073047739453614L162.84375,103.46218892163597L170.59821428571428,104.26370758062694L178.35267857142858,73.7274173690239L186.10714285714286,103.90486549551133L193.86160714285714,90.31746442860458L201.61607142857144,86.61218538845424L209.37053571428572,102.07388846285176L217.125,109.68925310613122L224.8794642857143,92.63661588332616L232.63392857142856,104.4867119579576L240.38839285714283,101.13199423556216L248.14285714285714,90.33419820328709L255.89732142857142,91.41837588767521" style="fill: none;" fill="none"></path></g><g><path stroke="rgb(204, 51, 17)" stroke-width="2px" d="M38.77232142857142,91.81241454638075L46.526785714285715,95.08810724969953L54.28125,94.83385456865653L62.035714285714285,95.9507909687236L69.79017857142857,97.04662797355559L77.54464285714285,98.33908351860009L85.29910714285714,93.93753768492024L93.05357142857143,100.12387374322861L100.80803571428572,98.46225496463012L108.5625,99.20553664292675L116.31696428571428,98.98438715748489L124.07142857142857,100.8250162525801L131.82589285714286,101.06761292548617L139.58035714285714,98.04193646262866L147.33482142857142,100.3091873798403L155.0892857142857,101.7185441738693L162.84375,100.03633609530516L170.59821428571428,100.04700172366574L178.35267857142858,103.66942009329796L186.10714285714286,103.53220777813112L193.86160714285714,101.54464805929456L201.61607142857144,102.64388017874444L209.37053571428572,104.59863812191179L217.125,101.25238665606594L224.8794642857143,104.08324316138169L232.63392857142856,105.28979402582627L240.38839285714283,100.9641331442399L248.14285714285714,106.60976490465691L255.89732142857142,105.58909408131149" style="fill: none;" fill="none"></path></g><g><path stroke="rgb(0, 119, 187)" stroke-width="2px" d="M38.77232142857142,20.835009544622153L46.526785714285715,-0.4668338908813894L54.28125,48.20144850900397L62.035714285714285,-6.745642934460193L69.79017857142857,71.12335452018306L77.54464285714285,59.099448450957425L85.29910714285714,-16.12645392981358L93.05357142857143,66.36010476818774L100.80803571428572,57.52374428987969L108.5625,80.0150901459856L116.31696428571428,9.742530812742189L124.07142857142857,56.14276402944233L131.82589285714286,72.05382128851488L139.58035714285714,47.550871677463874L147.33482142857142,50.84074767911807L155.0892857142857,82.8466091126902L162.84375,80.8588142200606L170.59821428571428,80.76966679096222L178.35267857142858,79.49712483526673L186.10714285714286,85.35890780994669L193.86160714285714,87.91948006860912L201.61607142857144,85.14317063405178L209.37053571428572,67.63118268421385L217.125,88.76213757984806L224.8794642857143,75.65867118211463L232.63392857142856,69.54829294665251L240.38839285714283,79.10369564103894L248.14285714285714,79.65158433269244L255.89732142857142,70.18412338767666L263.6517857142857,85.68771389569156" style="fill: none;" fill="none"></path></g><g><path stroke="rgb(255, 112, 67)" stroke-width="2px" d="M38.77232142857142,-24.624442379921675L46.526785714285715,39.03287689341232L54.28125,38.221891661174595L62.035714285714285,29.281657237093896L69.79017857142857,36.805098738055676L77.54464285714285,34.95196899655275L85.29910714285714,40.58931667730212L93.05357142857143,40.97404775349423L100.80803571428572,46.639304932556115L108.5625,41.391888649901375L116.31696428571428,50.788936573895626L124.07142857142857,45.488324641715735L131.82589285714286,47.80933761294L139.58035714285714,50.7323689959012L147.33482142857142,48.84875278128311L155.0892857142857,51.71382541733328L162.84375,54.373707262799144L170.59821428571428,52.264271209947765L178.35267857142858,55.04670178773813L186.10714285714286,53.549426430487074L193.86160714285714,55.96407831902616L201.61607142857144,56.378295551636256L209.37053571428572,56.904535005101934L217.125,55.82339801848866L224.8794642857143,57.16820788709447L232.63392857142856,55.2950651870342L240.38839285714283,56.981592513853684L248.14285714285714,57.55527745198924L255.89732142857142,58.65241288114339L263.6517857142857,59.63380305643659" style="fill: none;" fill="none"></path></g></g></g></g></g></g><g transform="translate(58, 177)" clip-path="url(#clip_1)"><clipPath id="clip_1"><rect width="271" height="22"></rect></clipPath><g><g><line x1="0" y1="0" x2="0" y2="5" style="visibility: inherit;" fill="rgb(0, 0, 0)" stroke="rgb(204, 204, 204)" stroke-width="1px"></line><line x1="38.77232142857142" y1="0" x2="38.77232142857142" y2="5" style="visibility: inherit;" fill="rgb(0, 0, 0)" stroke="rgb(204, 204, 204)" stroke-width="1px"></line><line x1="77.54464285714285" y1="0" x2="77.54464285714285" y2="5" style="visibility: inherit;" fill="rgb(0, 0, 0)" stroke="rgb(204, 204, 204)" stroke-width="1px"></line><line x1="116.31696428571428" y1="0" x2="116.31696428571428" y2="5" style="visibility: inherit;" fill="rgb(0, 0, 0)" stroke="rgb(204, 204, 204)" stroke-width="1px"></line><line x1="155.0892857142857" y1="0" x2="155.0892857142857" y2="5" style="visibility: inherit;" fill="rgb(0, 0, 0)" stroke="rgb(204, 204, 204)" stroke-width="1px"></line><line x1="193.86160714285714" y1="0" x2="193.86160714285714" y2="5" style="visibility: inherit;" fill="rgb(0, 0, 0)" stroke="rgb(204, 204, 204)" stroke-width="1px"></line><line x1="232.63392857142856" y1="0" x2="232.63392857142856" y2="5" style="visibility: inherit;" fill="rgb(0, 0, 0)" stroke="rgb(204, 204, 204)" stroke-width="1px"></line><line x1="271.40625" y1="0" x2="271.40625" y2="5" style="visibility: inherit;" fill="rgb(0, 0, 0)" stroke="rgb(204, 204, 204)" stroke-width="1px"></line></g><g transform="translate(0, 8)"><text x="0" y="0" dx="0em" dy="0.95em" style="text-anchor: middle; visibility: hidden; font-family: &quot;Helvetica Neue&quot;, sans-serif; font-size: 12px; font-weight: 200;" fill="rgb(50, 49, 63)" stroke="none" stroke-width="1px">-5</text><text x="38.77232142857142" y="0" dx="0em" dy="0.95em" style="text-anchor: middle; visibility: inherit; font-family: &quot;Helvetica Neue&quot;, sans-serif; font-size: 12px; font-weight: 200;" fill="rgb(50, 49, 63)" stroke="none" stroke-width="1px">0</text><text x="77.54464285714285" y="0" dx="0em" dy="0.95em" style="text-anchor: middle; visibility: inherit; font-family: &quot;Helvetica Neue&quot;, sans-serif; font-size: 12px; font-weight: 200;" fill="rgb(50, 49, 63)" stroke="none" stroke-width="1px">5</text><text x="116.31696428571428" y="0" dx="0em" dy="0.95em" style="text-anchor: middle; visibility: inherit; font-family: &quot;Helvetica Neue&quot;, sans-serif; font-size: 12px; font-weight: 200;" fill="rgb(50, 49, 63)" stroke="none" stroke-width="1px">10</text><text x="155.0892857142857" y="0" dx="0em" dy="0.95em" style="text-anchor: middle; visibility: inherit; font-family: &quot;Helvetica Neue&quot;, sans-serif; font-size: 12px; font-weight: 200;" fill="rgb(50, 49, 63)" stroke="none" stroke-width="1px">15</text><text x="193.86160714285714" y="0" dx="0em" dy="0.95em" style="text-anchor: middle; visibility: inherit; font-family: &quot;Helvetica Neue&quot;, sans-serif; font-size: 12px; font-weight: 200;" fill="rgb(50, 49, 63)" stroke="none" stroke-width="1px">20</text><text x="232.63392857142856" y="0" dx="0em" dy="0.95em" style="text-anchor: middle; visibility: inherit; font-family: &quot;Helvetica Neue&quot;, sans-serif; font-size: 12px; font-weight: 200;" fill="rgb(50, 49, 63)" stroke="none" stroke-width="1px">25</text><text x="271.40625" y="0" dx="0em" dy="0.95em" style="text-anchor: middle; visibility: hidden; font-family: &quot;Helvetica Neue&quot;, sans-serif; font-size: 12px; font-weight: 200;" fill="rgb(50, 49, 63)" stroke="none" stroke-width="1px">30</text></g><line x1="0" y1="0" x2="271.40625" y2="0" fill="rgb(0, 0, 0)" stroke="rgb(204, 204, 204)" stroke-width="1px"></line></g></g></g></g></svg>